<?xml version="1.0" encoding="UTF-8"?>
<!DOCTYPE svg PUBLIC "-//W3C//DTD SVG 1.1//EN" "http://www.w3.org/Graphics/SVG/1.1/DTD/svg11.dtd">
<svg xmlns="http://www.w3.org/2000/svg" version="1.1" width="90px" height="90px" style="shape-rendering:geometricPrecision; text-rendering:geometricPrecision; image-rendering:optimizeQuality; fill-rule:evenodd; clip-rule:evenodd" xmlns:xlink="http://www.w3.org/1999/xlink">
<g><path style="opacity:0.945" fill="#000000" d="M 31.5,2.5 C 34.1873,2.33591 36.854,2.50258 39.5,3C 40.7717,4.30678 41.7717,5.80678 42.5,7.5C 45.8333,8.83333 49.1667,10.1667 52.5,11.5C 53.641,13.4213 53.8077,15.4213 53,17.5C 46.2154,25.6176 48.3821,28.9509 59.5,27.5C 59.7093,28.086 60.0426,28.586 60.5,29C 64.5,29.3333 68.5,29.6667 72.5,30C 73,30.5 73.5,31 74,31.5C 74.3333,38.1667 74.6667,44.8333 75,51.5C 75.8854,49 77.0521,46.6667 78.5,44.5C 80.0026,43.9478 81.6693,43.9478 83.5,44.5C 82.6816,51.4837 80.6816,58.1504 77.5,64.5C 76.7579,65.2868 75.9246,65.9535 75,66.5C 74.6667,70.5 74.3333,74.5 74,78.5C 73.5,79 73,79.5 72.5,80C 68.1794,80.499 63.8461,80.6657 59.5,80.5C 59.8956,77.5178 59.2289,74.8511 57.5,72.5C 55.4775,74.1733 53.1441,74.8399 50.5,74.5C 50.5,73.5 50.5,72.5 50.5,71.5C 49.5,71.5 48.5,71.5 47.5,71.5C 47.5,72.5 47.5,73.5 47.5,74.5C 45.5,74.5 43.5,74.5 41.5,74.5C 41.5,73.5 41.5,72.5 41.5,71.5C 38.091,71.2493 34.7577,71.5827 31.5,72.5C 29.7711,74.8511 29.1044,77.5178 29.5,80.5C 25.1539,80.6657 20.8206,80.499 16.5,80C 16,79.5 15.5,79 15,78.5C 14.8275,74.1289 14.3275,69.7956 13.5,65.5C 12.1667,66.8333 10.8333,66.8333 9.5,65.5C 8.16667,57.5 8.16667,49.5 9.5,41.5C 11.0026,40.9478 12.6693,40.9478 14.5,41.5C 14.335,38.1501 14.5017,34.8168 15,31.5C 15.5,31 16,30.5 16.5,30C 24.9064,28.9057 33.2397,27.7391 41.5,26.5C 41.02,22.6942 42.02,19.3609 44.5,16.5C 43.9747,15.8076 43.3081,15.3076 42.5,15C 38.8333,14.6667 35.1667,14.3333 31.5,14C 28.8747,10.1681 28.8747,6.33476 31.5,2.5 Z M 26.5,56.5 C 23.6614,52.8341 23.9947,49.3341 27.5,46C 35.3333,44.5 38.5,47.6667 37,55.5C 33.6659,59.0053 30.1659,59.3386 26.5,56.5 Z M 54.5,45.5 C 56.256,46.5521 56.9227,48.2188 56.5,50.5C 58.5,50.5 60.5,50.5 62.5,50.5C 62.3505,49.448 62.5172,48.448 63,47.5C 66.1396,55.7004 63.3063,59.2004 54.5,58C 50.5471,53.8353 50.5471,49.6686 54.5,45.5 Z"/></g>
<g><path style="opacity:0.809" fill="#000000" d="M 75.5,2.5 C 76.8333,2.5 78.1667,2.5 79.5,2.5C 79.4935,5.5176 78.4935,8.18426 76.5,10.5C 78.339,12.5271 78.839,14.8604 78,17.5C 74.7068,19.8956 71.2068,21.8956 67.5,23.5C 66.263,23.4435 65.263,22.9435 64.5,22C 65.6399,20.0266 66.9733,18.1933 68.5,16.5C 66.7927,14.3579 65.9593,12.0246 66,9.5C 69.1454,7.02355 72.312,4.69021 75.5,2.5 Z"/></g>
<g><path style="opacity:0.764" fill="#000000" d="M 11.5,8.5 C 13.9099,8.92087 15.7432,10.2542 17,12.5C 18.6667,11.1667 20.3333,11.1667 22,12.5C 23.4529,16.1458 23.6195,19.8125 22.5,23.5C 21.1552,22.6533 20.1552,21.4866 19.5,20C 17.2571,20.3187 15.0905,20.152 13,19.5C 12.0642,15.8865 11.5642,12.2198 11.5,8.5 Z"/></g>
<g><path style="opacity:0.766" fill="#000000" d="M 26.5,56.5 C 26.5,54.5 26.5,52.5 26.5,50.5C 28.5,50.5 30.5,50.5 32.5,50.5C 32.5,52.5 32.5,54.5 32.5,56.5C 30.5,56.5 28.5,56.5 26.5,56.5 Z"/></g>
</svg>
